<svg xmlns="http://www.w3.org/2000/svg" width="512" height="512" viewBox="0 0 512 512">
  <defs>
    <style>
      .cls-1 {
        fill-rule: evenodd;
      }
    </style>
  </defs>
  <path id="Triangle_1" data-name="Triangle 1" class="cls-1" d="M500.939,288.787v-0.173H395.789V166.865a36.86,36.86,0,0,0-1.056-8.922C384.152,112.656,303.8,78.5,207.818,78.5c-6.058,0-12.312.136-18.594,0.412C76.149,83.944.175,126.25,0.175,184.184c0,0.032.005,0.07,0.005,0.108,0,0.022-.005.044-0.005,0.06v122a53.183,53.183,0,0,0,1.432,12.163c15.91,68.157,120.728,113.949,260.828,113.949H500.939a10.868,10.868,0,0,0,10.886-10.841v-122A10.865,10.865,0,0,0,500.939,288.787Zm-238.5-.173c-46.588,0-89.73-5.627-126.274-15.557v-60.92c17.009,11.99,42.1,20,68.969,23.85a265.126,265.126,0,0,0,37.59,2.678c4.142,0,8.36-.109,12.535-0.282,52.363-2.342,94.71-14.988,118.763-33.683v83.914H262.434ZM244.091,147.688c1.132,0.163,2.28.325,3.38,0.509,1.382,0.239,2.71.5,4.028,0.77,0.538,0.109,1.1.212,1.632,0.325,1.661,0.358,3.261.743,4.818,1.139,0.147,0.038.3,0.07,0.446,0.114,17.358,4.558,28.1,11.7,30.345,17.518v45.055a294.11,294.11,0,0,1-34.6,3.583c-3.842.157-7.745,0.26-11.582,0.26a247.073,247.073,0,0,1-31.059-1.919c-42.178-5.382-71.653-21.091-75.158-36.17a6.17,6.17,0,0,1-.174-1.551c0-11.334,27.248-28.945,76.562-31.134,2.586-.125,5.166-0.185,7.67-0.185a167.257,167.257,0,0,1,21.016,1.3C242.322,147.412,243.2,147.558,244.091,147.688Zm-53.9-47.114c5.954-.261,11.887-0.391,17.63-0.391,72.953,0,156.946,25.184,165.742,62.8a15.951,15.951,0,0,1,.457,3.886c0,15.259-23.362,32.382-63.5,42.171V168.443a10.744,10.744,0,0,0-.115-4.38c-4.806-20.484-31.243-32.6-60.576-37.379a185.612,185.612,0,0,0-29.6-2.4c-2.853,0-5.792.075-8.693,0.211-57.3,2.548-97.317,24.262-97.317,52.795a28.9,28.9,0,0,0,.18,2.949v86.109c-50.24-17.394-84.314-43.792-91.586-74.932a31.53,31.53,0,0,1-.86-7.231C21.947,139.362,91.134,104.98,190.188,100.574ZM490.053,410.785H439.334V372.842a10.886,10.886,0,0,0-21.772,0v37.943h-46.2V372.842a10.886,10.886,0,0,0-21.772,0v37.943h-48.46V372.842a10.886,10.886,0,0,0-21.772,0v37.943H262.434c-10.707,0-21.217-.32-31.527-0.9V373.4a10.886,10.886,0,0,0-21.772,0v34.821a472.205,472.205,0,0,1-48.46-7.2V363.687a10.886,10.886,0,0,0-21.772,0v32.262a303.1,303.1,0,0,1-48.455-16.96V339.441a10.886,10.886,0,0,0-21.772,0V367.5c-24.788-15.139-41.1-33.5-45.863-53.912a31.286,31.286,0,0,1-.865-7.236V235.19c0.708,0.824,1.551,1.6,2.292,2.418a0.183,0.183,0,0,1,.033.038,130.89,130.89,0,0,0,10.592,10.32l0.114,0.1c44.307,38.658,126.688,62.4,227.45,62.4H490.053V410.785Z"/>
</svg>
