<svg xmlns="http://www.w3.org/2000/svg" width="512" height="512" viewBox="0 0 512 512">
  <defs>
    <style>
      .cls-1 {
        fill-rule: evenodd;
      }
    </style>
  </defs>
  <path id="Triangle_1" data-name="Triangle 1" class="cls-1" d="M383.819,174.068c-5.885-79.793-73.4-141.483-153.809-138.992-81.051,2.515-144.9,69.334-144.864,150.207A151.74,151.74,0,0,0,.328,321.472c0,83.55,67.685,151.519,150.886,151.519A150,150,0,0,0,255.8,430.535a150.375,150.375,0,0,0,97.556,44.6c2.445,0.119,4.9.188,7.379,0.188,83.2,0,150.886-67.969,150.886-151.513C511.616,248.145,456.1,185.261,383.819,174.068ZM141.685,97.05a126.491,126.491,0,0,1,89-40.289c1.343-.04,2.685-0.063,4.016-0.063,69.308,0,125.264,54.522,127.4,124.132a127.966,127.966,0,0,1-62.374,114.06,150.85,150.85,0,0,0-4.817-19.6,24.04,24.04,0,0,0-9.229-46.19,23.64,23.64,0,0,0-12.342,3.539,151.187,151.187,0,0,0-87.648-58.652,17.458,17.458,0,1,0-31.346-3.958c-1.045-.022-2.081-0.08-3.131-0.08a149.774,149.774,0,0,0-43.868,6.551A127.381,127.381,0,0,1,141.685,97.05Zm9.529,352.507c-70.33,0-127.549-57.46-127.549-128.085S80.884,193.387,151.214,193.387s127.543,57.46,127.543,128.085S221.544,449.557,151.214,449.557Zm209.516,2.334a126.888,126.888,0,0,1-90.3-37.712,152.036,152.036,0,0,0,14.281-22.215,12.877,12.877,0,0,0,6.405,1.751,13.08,13.08,0,0,0,3.644-25.635,151.447,151.447,0,0,0,7.336-46.608c0-.749-0.046-1.488-0.057-2.234,0.622-.316,1.216-0.675,1.832-1a17.194,17.194,0,0,0,3.959-2.159,150.169,150.169,0,0,0,75.807-118.241A128.114,128.114,0,0,1,488.273,323.813C488.273,394.432,431.06,451.891,360.73,451.891ZM133.813,227.544a21.846,21.846,0,1,0,21.754,21.846A21.8,21.8,0,0,0,133.813,227.544ZM88.134,282.152a17.475,17.475,0,1,0,17.4,17.474A17.438,17.438,0,0,0,88.134,282.152Zm114.2-25.115a13.109,13.109,0,1,0-13.054-13.109A13.082,13.082,0,0,0,202.332,257.037ZM81.6,365.157a13.109,13.109,0,1,0,13.054,13.109A13.081,13.081,0,0,0,81.6,365.157Zm109.314-63.345a13.054,13.054,0,1,0-13.054,13.109A13.08,13.08,0,0,0,190.918,301.812ZM135.989,332.4a19.66,19.66,0,1,0,19.578,19.66A19.619,19.619,0,0,0,135.989,332.4ZM231.7,304a19.66,19.66,0,1,0,19.578,19.66A19.619,19.619,0,0,0,231.7,304Zm-31.54,63.351a24.026,24.026,0,1,0,23.925,24.025A23.975,23.975,0,0,0,200.161,367.349Zm14.848-232.236a21.846,21.846,0,1,0-21.755-21.845A21.8,21.8,0,0,0,215.009,135.113ZM283.328,118.8a13.109,13.109,0,1,0-13.054-13.108A13.081,13.081,0,0,0,283.328,118.8Zm-22.68,58.613A13.109,13.109,0,1,0,247.594,164.3,13.082,13.082,0,0,0,260.648,177.411Zm54.483,26.721a19.66,19.66,0,1,0-19.578-19.66A19.619,19.619,0,0,0,315.131,204.132Zm96.717,55.24a13.109,13.109,0,1,0-13.054-13.109A13.081,13.081,0,0,0,411.848,259.372Zm-11.42,44.781a13.054,13.054,0,1,0-13.054,13.108A13.082,13.082,0,0,0,400.428,304.153ZM345.5,334.735a19.66,19.66,0,1,0,19.577,19.66A19.619,19.619,0,0,0,345.5,334.735Zm95.711-28.4a19.66,19.66,0,1,0,19.578,19.66A19.619,19.619,0,0,0,441.211,306.333Zm-31.54,63.351A24.026,24.026,0,1,0,433.6,393.709,23.975,23.975,0,0,0,409.671,369.684Z"/>
</svg>
