<svg xmlns="http://www.w3.org/2000/svg" width="512" height="512" viewBox="0 0 512 512">
  <path d="M227.556,312.889a14.222,14.222,0,1,1-14.223,14.222A14.222,14.222,0,0,1,227.556,312.889ZM384,369.778A14.222,14.222,0,1,1,369.778,384,14.221,14.221,0,0,1,384,369.778ZM170.667,412.444a14.223,14.223,0,1,1-14.223,14.223A14.223,14.223,0,0,1,170.667,412.444ZM85.333,241.778a28.445,28.445,0,1,1-28.444,28.444A28.444,28.444,0,0,1,85.333,241.778Zm128-128A14.222,14.222,0,1,1,199.111,128,14.222,14.222,0,0,1,213.333,113.778Zm88.178,221.866a17.067,17.067,0,1,1-17.067,17.067A17.067,17.067,0,0,1,301.511,335.644ZM341.9,392.533A17.067,17.067,0,1,1,324.836,409.6,17.067,17.067,0,0,1,341.9,392.533ZM324.836,71.111a17.066,17.066,0,1,1-17.067,17.067A17.066,17.066,0,0,1,324.836,71.111Zm133.688,261.12a14.036,14.036,0,0,0,19.343-5.12,257.069,257.069,0,0,0,0-256,14.036,14.036,0,0,0-19.343-5.12L439.182,77.369A255.73,255.73,0,0,0,34.7,127.431v1.138A250.791,250.791,0,0,0,0,256,256,256,0,0,0,34.133,383.431V384h0C80.213,463.076,164.978,512,256,512A256.557,256.557,0,0,0,477.3,384.569h0a1.987,1.987,0,0,1,.569-1.138c0-.569.569-0.569,0.569-1.138s0.568-1.137.568-1.706V373.76c0-.569-0.568-1.138-0.568-1.707a1.134,1.134,0,0,0-.569-1.137c0-.569-0.569-1.138-0.569-1.707s-0.569-.569-0.569-1.138l-1.138-1.138c0-.569-0.569-0.569-0.569-1.137l-1.138-1.138c-0.568,0-.568-0.569-1.137-0.569h0L427.236,337.92V314.027ZM28.444,256A222.859,222.859,0,0,1,52.338,154.738L227.556,256,52.338,357.262A222.859,222.859,0,0,1,28.444,256Zm213.334,71.111v47.218a43.912,43.912,0,0,0-8.534-1.138,34.134,34.134,0,0,0,0,68.267,38.7,38.7,0,0,0,8.534-1.138v43.236A228.7,228.7,0,0,1,66.56,382.293l14.791-8.533A16.838,16.838,0,0,0,97.28,384.569,17.116,17.116,0,0,0,114.347,367.5a15.883,15.883,0,0,0-3.414-10.24l131.414-76.231v46.08h-0.569Zm0-128v32.427L143.36,174.649a34.044,34.044,0,0,0-21.049-60.871c-17.067,0-31.289,13.084-33.564,29.582L65.991,130.276A228.7,228.7,0,0,1,241.209,29.013v170.1h0.569Zm28.444-170.1A225.744,225.744,0,0,1,413.013,92.16L270.222,174.649V29.013ZM445.44,381.724A228.7,228.7,0,0,1,270.222,482.987V280.462ZM322.56,278.187V254.293l23.893,13.654V291.84Zm97.849-.569a15.665,15.665,0,0,0-14.222,0,14.134,14.134,0,0,0-7.4,12.515V322.56L374.9,308.907V259.982c0-5.12-2.845-9.671-7.4-12.515l-52.338-30.151a15.665,15.665,0,0,0-14.222,0,14.133,14.133,0,0,0-7.395,12.515v31.858l-23.894-13.653V207.644l70.543-40.96a27.146,27.146,0,0,0,25.6,1.707,27.773,27.773,0,0,0,17.066-26.738l75.662-43.8c17.067,31.289,25.032,65.991,25.032,101.262a222.859,222.859,0,0,1-23.894,101.262ZM435.2,187.733a34.134,34.134,0,1,1-34.133,34.134A34.133,34.133,0,0,1,435.2,187.733Z"/>
</svg>
